<?xml version="1.0" encoding="utf-8"?>
<!-- Generator: Adobe Illustrator 25.2.1, SVG Export Plug-In . SVG Version: 6.00 Build 0)  -->
<svg version="1.1" id="Layer_1" xmlns="http://www.w3.org/2000/svg" xmlns:xlink="http://www.w3.org/1999/xlink" x="0px" y="0px"
	 viewBox="0 0 512 512" style="enable-background:new 0 0 512 512;" xml:space="preserve">
<style type="text/css">
	.st0{fill:#FFFFFF;}
</style>
<g transform="translate(0,0)">
	<path class="st0" d="M332,66.1c-28.8,0-55.4,14.1-67.9,40.7c20.8,1.7,16,55.1,16,55.1c-11.8,16.7-24.7,33.2-36.6,50.1
		c0,0-99,132.3-178.4,168c-28,22.6-33.3,36.5-44.1,52.6c-4.9,9.5,9.3,14.3,11.7,13.2c22.7-10.5,25.2-20.9,47.1-35.7
		c12.8-5,23.8-15.9,31.9-11c35,20.9,107.6,44.3,118.3,38.7c17.9-9.3-5.8-43.6,16.2-89.1c32-3.4,58.9-0.9,88.3-12.1
		c3.5,50.3,10.1,54.6,6.8,107.1l71.2,1l0.7-14.6l-41.8-11.1c11.5-56.1,11.8-79,4.7-128c-1-6.6-53.7-8.3-81-3.8
		c24.4-24.2,40.3-45.2,47.5-68.4l0,0.2c7.6,15.9,30.1,34,35.3,37.1c27.7,11,38.2,8,63,3.9c4.9-0.8,27.5,24.5,44.8,9.6
		c2.6-20.2,16.5-20.4-4.9-32.7c-4.8-2.7-27.1,7.5-31.4,6.9c-20.2-2.5-31-5.2-58.5-12.7c-10.2-13.2-32.7-56.1-55.4-59.7
		c6.5-14.1,28.2-53.1,73.7-66.2C388.1,78.7,359.1,66.1,332,66.1L332,66.1z M414.4,112.9c-46.7,19.5-58.3,50.4-58.3,50.4l9.9,7.6
		C366.1,170.9,375.7,166.1,414.4,112.9z M437.5,272.9l-4.7,11.4c5.2-0.1,10.4,0.5,15.3,1.6c-12.8,30.9-23.9,59.6-28.2,93.1l-0.9,7.6
		l4.9-5.9c20.8-25.7,32.3-55.2,45-85.8c4.2,2.7,8.2,5.9,12.1,9.4l4.8-11.4l-20.5-8.5l-31.8,66.6l24.1-69.7L437.5,272.9L437.5,272.9z
		"/>
</g>
</svg>
