<?xml version="1.0" encoding="utf-8"?>
<!-- Generator: Adobe Illustrator 25.2.1, SVG Export Plug-In . SVG Version: 6.00 Build 0)  -->
<svg version="1.1" id="Layer_1" xmlns="http://www.w3.org/2000/svg" xmlns:xlink="http://www.w3.org/1999/xlink" x="0px" y="0px"
	 viewBox="0 0 512 512" style="enable-background:new 0 0 512 512;" xml:space="preserve">
<style type="text/css">
	.st0{fill:#FFFFFF;}
</style>
<g transform="translate(0,0)">
	<path class="st0" d="M197.6,23.3c-18.3,0.2-34.4,4.4-48.5,12.3c-28.2,15.8-47.1,45.1-61.5,81.9c-0.6,1.6-1.3,3.3-1.9,4.9
		c5.5,2.3,11.1,4.6,16.7,6.7c0.6-1.7,1.3-3.4,1.9-5c13.6-34.8,30.7-59.9,53.5-72.7c11.4-6.4,24.5-10,40.1-10.1
		c15.6-0.1,33.6,3.3,54.9,11.1l3.1,1.1l3.1-1.1c42.5-15.5,72.2-13.7,95-0.9c22.8,12.8,39.9,38,53.5,72.7c0.6,1.7,1.3,3.3,1.9,5
		c5.6-2.1,11.2-4.3,16.7-6.7c-0.6-1.7-1.2-3.3-1.9-4.9c-14.4-36.7-33.3-66.1-61.5-81.9C335.4,20.1,300,18.9,256,34.3
		C234.5,26.8,215,23.1,197.6,23.3z M181.4,108.6c-4.8,5.4-9.2,11.5-13.3,18.1c-3.7,5.9-7,12.3-10,19l0.2,0c0.2,0,0.5,0,0.7,0
		c4.8,0,9.5,1,13.8,3.1c16.4,3.1,32.9,5.4,49.5,6.6C207.1,139.8,193.2,123.3,181.4,108.6L181.4,108.6z M338.9,119.3
		c-9.5,9.6-17.3,20.8-23.1,33.3c7.8-1.1,15.6-2.4,23.4-3.8c4.3-2,9-3.1,13.8-3.1c0.2,0,0.5,0,0.7,0l0.2,0c-3-6.7-6.4-13.1-10-19
		C342.3,124.2,340.6,121.7,338.9,119.3z M37.7,138.7l22.3,22.3l7.4-22.3H37.7z M444.5,138.7l7.4,22.3l22.3-22.3H444.5z M85.5,141.6
		l-10.2,30.6c17.4,6.2,34.7,11.6,52.1,16c-0.9-3-1.4-6.2-1.4-9.4c0-7.9,2.8-15.1,7.5-20.8C117.2,153.4,101.2,147.9,85.5,141.6
		L85.5,141.6z M426.5,141.6c-15.7,6.3-31.7,11.7-48,16.3c4.7,5.7,7.5,13,7.5,20.8c0,3.3-0.5,6.4-1.4,9.4c17.6-4.5,35-9.8,52.1-16
		L426.5,141.6z M159,163.7c-8.4,0-15,6.6-15,15s6.6,15,15,15s15-6.6,15-15S167.4,163.7,159,163.7z M353,163.7c-8.4,0-15,6.6-15,15
		s6.6,15,15,15s15-6.6,15-15S361.4,163.7,353,163.7z M321.2,169.9c-4.1,0.6-8.1,1.1-12.2,1.6c-2.6,9.6-4.3,19.9-4.8,30.8
		c7.8-0.7,15.5-1.7,23.3-2.8c-4.7-5.7-7.5-13-7.5-20.8C320,175.7,320.4,172.7,321.2,169.9L321.2,169.9z M190.8,169.9
		c0.8,2.9,1.2,5.8,1.2,8.8c0,7.9-2.8,15.1-7.5,20.8c11.5,1.6,23,2.9,34.6,3.7c0.3-6.5-3.4-30.5-3.4-30.5
		C207.4,172.1,199.1,171.1,190.8,169.9L190.8,169.9z M242.4,174.6l-8.6,6.9l13.9,83.3h16.8l11-66.2
		C264.2,192.3,253.1,184,242.4,174.6L242.4,174.6z M66.3,188.2c-15.2,63.4-26.1,138-43,211.5l-1.8,7.8l7.5,2.7
		c14.5,5.2,28.9,10.3,43.4,15.5c4.2-1.6,8.5-3,12.8-4.5c5.1-1.7,10.2-3.3,15.1-4.9c-17.5-6.1-36.6-12.8-57.8-20.4
		c16-71.1,26.9-142.2,41-201.7C77.7,192.2,72,190.2,66.3,188.2z M445.7,188.2c-5.7,2.1-11.4,4.1-17.2,6c14.1,59.5,25,130.6,41,201.7
		c-21.2,7.6-40.3,14.3-57.8,20.4c4.9,1.6,10,3.2,15.1,4.9c4.3,1.4,8.5,2.9,12.8,4.5c13.5-4.8,27.9-9.9,43.4-15.5l7.5-2.7l-1.8-7.8
		C471.8,326.2,460.9,251.6,445.7,188.2L445.7,188.2z M140.3,209.9c-2.2,15.2-3.3,31.3-3.3,47.9c0,48,0.6,86.7,14.8,111.5
		c7.1,12.4,17.2,21.8,33.6,28.7c16.4,6.8,39.3,10.8,70.5,10.8s54.1-4,70.5-10.8c16.4-6.8,26.6-16.3,33.6-28.7
		c14.2-24.8,14.8-63.5,14.8-111.5c0-16.6-1.1-32.6-3.3-47.9c-27.3,6-54.6,9.9-81.9,11.7l-2.4,14.5c21.6,2.3,46.5-7,77.4-18.7
		l6.4,16.8c-7.8,3-15.4,5.9-22.9,8.6c4.4,3.6,7.7,8.7,7.7,15c0,8.2-5.7,14.3-11.9,17.8c-6.2,3.5-13.8,5.3-22.1,5.3
		s-15.9-1.8-22.1-5.3c-6.2-3.5-11.9-9.6-11.9-17.8c0-1.2,0.1-2.3,0.4-3.4c-1.3-0.1-2.6-0.2-3.9-0.4l-4.8,28.8h-47.2l-4.8-28.8
		c-1.3,0.2-2.6,0.3-3.9,0.4c0.2,1.1,0.4,2.2,0.4,3.4c0,8.2-5.7,14.3-11.9,17.8c-6.2,3.5-13.8,5.3-22.1,5.3c-8.3,0-15.9-1.8-22.1-5.3
		c-6.2-3.5-11.9-9.6-11.9-17.8c0-6.3,3.3-11.4,7.7-15c-7.5-2.7-15.1-5.7-22.9-8.6l6.4-16.8c30.9,11.7,55.8,21.1,77.4,18.7l-2.4-14.5
		C194.9,219.8,167.6,215.9,140.3,209.9L140.3,209.9z M104.1,216.4c-0.2,0-0.5,0.2-0.8,0.3c-9.2,30.8-5.5,47.1,0.2,66.9l15.4,7.7
		v-62.6c-4.4-6.5-8.4-10-11.1-11.2C106.4,216.6,105.3,216.3,104.1,216.4L104.1,216.4z M407.9,216.4c-1.2-0.1-2.3,0.3-3.8,1
		c-2.7,1.3-6.7,4.8-11.1,11.2v62.6l15.4-7.7c5.7-19.7,9.5-36.1,0.2-66.9C408.4,216.6,408.1,216.4,407.9,216.4L407.9,216.4z
		 M190,252.6c-5.5,0-10.4,1.4-13.2,3c-2,1.1-2.5,1.9-2.7,2.2c0.1,0.2,0.7,1,2.7,2.2c2.8,1.6,7.7,3,13.2,3c5.5,0,10.4-1.4,13.2-3
		c2-1.1,2.5-1.9,2.7-2.2c-0.1-0.2-0.7-1-2.7-2.2C200.4,254,195.5,252.6,190,252.6L190,252.6z M205.9,257.7
		C206,257.8,206,257.8,205.9,257.7C206,257.6,206,257.6,205.9,257.7z M174.1,257.7C174.1,257.6,174,257.6,174.1,257.7
		C174,257.8,174.1,257.8,174.1,257.7z M322,252.6c-5.5,0-10.4,1.4-13.2,3c-2,1.1-2.5,1.9-2.7,2.2c0.1,0.2,0.7,1,2.7,2.2
		c2.8,1.6,7.7,3,13.2,3s10.4-1.4,13.2-3c2-1.1,2.5-1.9,2.7-2.2c-0.1-0.2-0.7-1-2.7-2.2C332.4,254,327.5,252.6,322,252.6L322,252.6z
		 M337.9,257.7C337.9,257.8,338,257.8,337.9,257.7C338,257.6,337.9,257.6,337.9,257.7z M306.1,257.7
		C306,257.6,306,257.6,306.1,257.7C306,257.8,306,257.8,306.1,257.7z M215,289.7h18c0,0,0.1,6.1,3.1,12c2.9,5.9,6.9,11,19.9,11
		s17-5.2,20-11c2.9-5.9,3-12,3-12h18c0,0,0.1,9.9-5,20c-5.1,10.1-17,21-36,21s-31-10.8-36.1-21C214.9,299.6,215,289.7,215,289.7
		L215,289.7z M256,342.9c21.1,0,42.3,4.1,66.8,12.3l-5.7,17.1c-46.9-15.6-75.4-15.6-122.3,0l-5.7-17.1
		C213.7,347,234.9,342.9,256,342.9L256,342.9z M161.8,405.6c-0.4,0.5-0.8,1-1.3,1.5c-5.1,5.6-11.7,9.7-19.1,13.2
		c-14.7,7.1-32.8,12-50.6,17.9C73.1,444.2,56,451,44,460.3c-9.7,7.6-16.1,16.2-18.2,28.4h148c12.6-6.5,23.5-11.9,30.6-17.7
		c7.4-6,10.8-11.2,10.6-21.2l18-0.2c0.2,15.2-7.2,27.2-17.3,35.4c-1.6,1.3-3.3,2.5-5,3.7h90.4c-1.7-1.2-3.4-2.4-5-3.7
		c-10.1-8.2-17.4-20.2-17.3-35.4l18,0.2c-0.1,10,3.2,15.2,10.6,21.2c7,5.7,18,11.1,30.6,17.7h148c-2.1-12.2-8.5-20.8-18.2-28.4
		c-12-9.3-29.1-16.2-46.8-22.1c-17.7-5.9-35.9-10.9-50.6-17.9c-7.3-3.5-13.9-7.6-19.1-13.2c-0.4-0.5-0.9-1-1.3-1.5
		c-5,3.4-10.6,6.4-16.8,9c-19.6,8.2-44.7,12.2-77.5,12.2s-57.9-4-77.5-12.2C172.4,412,166.8,409,161.8,405.6L161.8,405.6z"/>
</g>
</svg>
