<?xml version="1.0" encoding="utf-8"?>
<!-- Generator: Adobe Illustrator 25.2.1, SVG Export Plug-In . SVG Version: 6.00 Build 0)  -->
<svg version="1.1" id="Layer_1" xmlns="http://www.w3.org/2000/svg" xmlns:xlink="http://www.w3.org/1999/xlink" x="0px" y="0px"
	 viewBox="0 0 512 512" style="enable-background:new 0 0 512 512;" xml:space="preserve">
<style type="text/css">
	.st0{fill:#FFFFFF;}
</style>
<g transform="translate(0,0)">
	<path class="st0" d="M222.8,64.8c1.4,0,2.8,0.2,4.2,0.6c8.4,2.3,13.9,11.2,14.6,22l-25.8,6l21.9,13.9
		c-4.9,10.5-13.7,17.3-22.3,17.3c-1.4,0-2.8-0.2-4.2-0.6c-11.7-3.2-17.6-18.8-13.2-35C201.8,74.7,212.3,64.8,222.8,64.8L222.8,64.8z
		 M202.5,55.3c2.8-2,5.9-3.5,9.2-4.7c-5.5-4.2-12.1-8.8-15.9-9.7c-27.8-6.5-28.3,34.4-49.1,15.3C163.5,86.8,182,44.1,202.5,55.3
		L202.5,55.3z M256.5,170.9c-6.4-14.2-23.2-20.6-37.4-14.1l23.3,51.6C256.6,201.9,263,185.1,256.5,170.9L256.5,170.9z M187,205.9
		l-21.7-6.7l-60.9,31l7.2,14.1L187,205.9z M216.8,140.5h-1.5c-2.8,0-5.7-0.4-8.4-1.1c-5.4-1.5-10.3-4.3-14.3-8.2l-19.5,53.8
		l47.7,14.6L210.2,176l-14-2.6l9.7-7l-8-17.5C197.8,148.8,215.4,141,216.8,140.5L216.8,140.5z M84.2,283.5
		c-64.7-46.2,42-97.3-47-105.9c59.3,26.6-49.4,44.8-10.2,97.7c7.5,10.1,34.8,25,49.6,32.6C77.8,299.4,80.4,291.1,84.2,283.5
		L84.2,283.5z M217,220.2l2.3-4.4l-10.3-3.1L159.1,238l68.6,26.5l-48.3,40.1l40.6,26.5l-6.5-23.9l45.4-49L217,220.2z M230.7,138.2
		c4.9,0,9.8,0.8,14.4,2.4l41.8-21.2c-11.7-2.3-23.7-3.5-35.7-3.5c-5.7,11-14.4,19-24.2,22.5C228.3,138.3,229.5,138.2,230.7,138.2
		L230.7,138.2z M412.7,262.6h-4.1c-5.4,0-11.4-0.2-17.8-0.6l12.7,18l25-7.3c0,0-1.1-4.5-2.7-11.2C421.4,262.1,417,262.6,412.7,262.6
		L412.7,262.6z M273.7,216.2c13.8-22.9,46.8-66.7,96-66.7c16.8,0,35.5,5.1,56,17.9l-11,19.8l0.2,21.9c-0.4,3.2,3.4,21,7.1,36.9
		c-6.6,1.1-23,1-43.2-1l-5.7-8.1c-16.2-9.6-28.8-15.8-28.8-15.8s0.9,7.8,1.2,19.2c-23.1-4.2-46.9-10.7-64.8-20.1
		C278.4,219,276,217.7,273.7,216.2L273.7,216.2z M393.8,197.8c0,4.7,5.7,7,9,3.7c3.3-3.3,1-9-3.7-9
		C396.2,192.6,393.8,194.9,393.8,197.8L393.8,197.8L393.8,197.8z M261.2,150.4c3.9,3.7,7.1,8.1,9.4,12.9L493.8,39.9v-9.4
		L261.2,150.4z M337.4,304.5c5.6-14.7,7.7-32.6,8.2-48c-16.6-2.8-33-6.9-49-12.2c-10.5-3.5-20.6-8.1-30.1-13.8l13.8,96.7l-129,17.1
		l-10.4-87c-4.3,1.8-8.4,3.6-12.5,5.6C69.5,291.5,98.8,359,98.8,359l-25,49.2l30.1,54.4v18.8h33.9l-15.7-22.8L107.6,406l48.9-46.4
		c27.9,1.3,102.4-11.5,134.5-17l83,4.5l22.9,29.3L380.1,389l29.5,13.9l9.4-18.5l-19.2-49.3L337.4,304.5z M286.2,173.4l-11.3,5.7
		c0.2,2.5,0.2,4.9-0.1,7.4C278.2,182.2,282,177.8,286.2,173.4z M317.8,405.3l-5-45.4l-20.9-1.1c-6.2,1.1-13.1,2.2-20.4,3.4
		l21.5,47.7l17.7,54.6l-0.6,17h31.7l-9.6-17.8L317.8,405.3z M177.5,424.8l36.8-53.8c-21.3,3-51.3,5.1-51.5,5.1l2.9,7.6l-19.1,41.9
		l47,44.1v11.8h28.6l-11.4-12.9L177.5,424.8z"/>
</g>
</svg>
