<?xml version="1.0" encoding="utf-8"?>
<!-- Generator: Adobe Illustrator 25.2.1, SVG Export Plug-In . SVG Version: 6.00 Build 0)  -->
<svg version="1.1" id="Layer_1" xmlns="http://www.w3.org/2000/svg" xmlns:xlink="http://www.w3.org/1999/xlink" x="0px" y="0px"
	 viewBox="0 0 512 512" style="enable-background:new 0 0 512 512;" xml:space="preserve">
<style type="text/css">
	.st0{fill:#FFFFFF;}
</style>
<g transform="translate(0,0)">
	<path class="st0" d="M256.3,19.4C204,57.2,177.2,111,152.5,160.7c43.4-24.6,101.7-32.9,126.9-28.7c-63.8,10.6-108,25.8-144.4,64.3
		c-2.2,4.5-4.1,8.3-6.4,13.1c115.4-27.8,134.4-27,250.9-0.7C368,158.6,343,126.6,304,65.8c41.9,52.6,124.1,142.3,120.3,124.8
		C401.4,85.7,324.2,23.5,256.3,19.4z M88,231.3c-31,7.4-53.9,17.5-62.8,26.7c0.9,11.7,6.7,22.1,17.5,32
		c11.8,10.8,29.6,20.4,51.3,28.1c2.7,0.9,5.4,1.8,8.1,2.7c-8.4-11-11.2-26.3-13-41.1C89.1,264.3,86.1,246.2,88,231.3L88,231.3z
		 M424,231.3c2.2,16.2,0.6,34.5-1.1,48.4c-1.8,14.8-4.6,30.1-13,41.1c20.2-7,44.6-17.6,59.4-30.8c10.8-9.9,16.6-20.3,17.5-32
		C477.9,248.8,455.1,238.7,424,231.3L424,231.3z M149.6,231.6l-7,14h98.8l-7-14H149.6z M277.6,231.6l-7,14h98.8l-7-14H277.6z
		 M119,241c-4.7,1.3-9.4,2.6-14,4.1c1,19.9,0.6,47.6,11.6,64.5h2.4V241z M393,241v68.6h2.4c10.5-20.7,11.3-41.8,11.6-64.5
		C402.4,243.6,397.7,242.3,393,241z M137.1,263.6c-0.3,18.8,2,39.5,6.2,55.7c21.1-14.1,41.9-25.7,64.7-25.7c3.2,0,6.4,0.2,9.4,0.4
		l5.2-15.7c-5.6,5.7-12.9,8.9-23.2,8.5c-25.2-0.8-33.9-11.1-37.5-23.2L137.1,263.6z M246.5,263.6l-12.4,37.2l21.9,27.4l21.9-27.4
		l-12.4-37.2H246.5z M350.1,263.6c-3.6,12.1-12.3,22.4-37.5,23.2c-10.3,0.4-17.6-2.8-23.2-8.5l5.2,15.7c3.1-0.3,6.3-0.4,9.4-0.4
		c22.8,0,43.6,11.6,64.7,25.7c4.4-20.1,6.8-37.6,6.2-55.7L350.1,263.6z M208,311.6c-20,0-43,14.5-68.9,32.4
		c-19.2,13.3-39.9,28.1-63.3,38.4c28.6,6.1,65.8,4.8,98.2-2.6c21.3-4.8,40.5-12.1,53.7-20.5c8.5-5.5,14.1-11.1,17-16.4l-24.2-30.3
		C216.8,312,212.6,311.6,208,311.6z M304,311.6c-4.6,0-8.8,0.4-12.5,1l-24.2,30.3c2.9,5.3,8.5,10.9,17,16.4
		c13.2,8.4,32.4,15.7,53.7,20.5c32.4,7.4,69.6,8.7,98.2,2.6c-23.4-10.3-44.1-25.1-63.3-38.4C347,326.1,324,311.6,304,311.6
		L304,311.6z M256,358.3c-4.6,5.7-10.6,10.8-17.4,15.3h34.8C266.6,369.1,260.6,364,256,358.3z M199.3,391.6
		c-6.9,2.2-14,4.1-21.3,5.8c-9.5,2.2-19.2,3.9-28.9,5.1c6.1,19.6,14.1,39.5,23,58.2l0.1,0.2c4.3-6.7,9.4-13.1,13.5-19.8
		c-2.4,13.9-3.3,27.9-2.3,41.8c1.7,3.3,3.5,6.5,5.3,9.7h134.6c3.6-6.3,7-12.7,10.3-19.2c5.4-21.9,3.9-42.8,5.4-64.2
		c3.1,11.5,6.1,23,8.5,34.7c5.8-13.6,11.1-27.6,15.4-41.4c-9.7-1.2-19.4-2.9-28.9-5.1c-7.3-1.7-14.4-3.6-21.3-5.8L199.3,391.6z"/>
</g>
</svg>
