<?xml version="1.0" encoding="utf-8"?>
<!-- Generator: Adobe Illustrator 25.2.1, SVG Export Plug-In . SVG Version: 6.00 Build 0)  -->
<svg version="1.1" id="Layer_1" xmlns="http://www.w3.org/2000/svg" xmlns:xlink="http://www.w3.org/1999/xlink" x="0px" y="0px"
	 viewBox="0 0 512 512" style="enable-background:new 0 0 512 512;" xml:space="preserve">
<style type="text/css">
	.st0{fill:#FFFFFF;}
</style>
<g transform="translate(0,0)">
	<path class="st0" d="M455.9,211.8c-17.9-0.1-38.9,9-55.9,26.1c-5.1,5.1-9.7,10.8-13.6,16.9c-29.3-17.6-72.4-16.8-113.3-3.9
		c-9.2,2.5-18.2,5.5-26.9,9.2c-43.7,18.3-78.5,49.8-86.2,89.6c-6.6,30.1,5.4,63.2,47.4,94.8H88.1l-26.4,47.8h257.2L230.3,389
		c24.3-26.7,67.5-43.7,97-45.1c13.8,45.1,36.2,113.5,71.7,148.3h60.9c-43.1-46.5-76.6-109.1-82-179.8c1.6,3.2,3.7,6.2,6.3,8.8
		c18.7,18.7,55.9,11.6,83.3-15.7c27.3-27.3,34.4-64.6,15.7-83.3C476.3,215.2,466.6,211.8,455.9,211.8L455.9,211.8z"/>
</g>
</svg>
