<?xml version="1.0" encoding="utf-8"?>
<!-- Generator: Adobe Illustrator 25.2.1, SVG Export Plug-In . SVG Version: 6.00 Build 0)  -->
<svg version="1.1" id="Layer_1" xmlns="http://www.w3.org/2000/svg" xmlns:xlink="http://www.w3.org/1999/xlink" x="0px" y="0px"
	 viewBox="0 0 512 512" style="enable-background:new 0 0 512 512;" xml:space="preserve">
<style type="text/css">
	.st0{fill:#FFFFFF;}
</style>
<g transform="translate(0,0)">
	<path class="st0" d="M478.6,22.1c-11.2,11.3-19.5,24.5-26.3,38.5l25,37.4c4.4-3.2,9.9-6.1,16.9-8.5c-20.7-10-26.7-29.1-10.3-44.8
		L478.6,22.1z M33.4,22.7l-5.3,22.5C44.5,60.9,38.5,80,17.8,90c6.7,2.4,12,5.2,16.4,8.2l25.1-37.7C52.7,46.7,44.4,33.8,33.4,22.7z
		 M220.4,26.8l-17.2,5.3l9.1,29.7c5.4-2.4,11.1-4.4,17-6L220.4,26.8z M291.2,26.8l-8.9,29c5.9,1.5,11.6,3.5,17,6l9.1-29.7
		L291.2,26.8z M150.2,55.1l-12.8,12.7l28.8,28.9c1-1.1,1.9-2.2,2.9-3.3c3.1-3.4,6.3-6.6,9.7-9.7L150.2,55.1z M361.4,55.1l-28.6,28.7
		c3.4,3.1,6.6,6.3,9.7,9.7c1,1.1,1.9,2.1,2.8,3.2l28.9-28.8L361.4,55.1z M255.8,70.5c-29,0-54.7,14.6-73.3,35
		c-16.1,17.7-26.5,39.8-29,59h204.6c-2.5-19.2-12.9-41.3-29-59C310.5,85,284.8,70.5,255.8,70.5z M61.4,89.9l-20.9,31.2
		c-7.1,61,8.7,105.3,31.4,126.3C83.4,258,96.3,262.9,110,262c13.7-0.8,28.6-7.6,43.4-22.4l11.9-11.9l3.3,16.5
		c7.8,38.7,23.2,69.4,40.2,90.1c16.9,20.7,35.5,30.7,47,30.7s30.1-10,47-30.7c17-20.7,32.4-51.4,40.2-90.1l3.3-16.5l11.9,11.9
		c14.8,14.8,29.7,21.6,43.4,22.4c13.7,0.9,26.6-4,38.1-14.6c22.7-21,38.5-65.3,31.4-126.3l-20.9-31.2c-15.4,40-35.1,68.7-63.4,87.6
		c-13,8.6-27.5,15.1-44,19.7c-4.2,17.9-14.7,38.6-27.5,57.8c-8.3,12.5-17.7,24-27.5,32.7c-9.9,8.8-20.2,15.3-32,15.3
		s-22.1-6.5-32-15.3c-9.8-8.7-19.2-20.2-27.5-32.7c-12.8-19.2-23.3-39.9-27.5-57.8c-16.5-4.6-31-11.1-44-19.7
		C96.5,158.6,76.8,129.9,61.4,89.9L61.4,89.9z M114.6,117l-5.6,17l30.5,10.1c1.8-5.5,4-11.1,6.6-16.6L114.6,117z M397,117
		l-31.5,10.5c2.6,5.5,4.8,11.1,6.6,16.6l30.5-10.1L397,117z M219.5,182.5c5.7,17.9,20.2,30,36.3,30s30.6-12.1,36.3-30H219.5z
		 M189.5,202c4.7,13,12.4,29,21.8,43c7.7,11.5,16.3,22,24.5,29.3c8.1,7.2,15.8,10.7,20,10.7s11.9-3.5,20-10.7
		c8.2-7.3,16.8-17.8,24.5-29.3c9.4-14,17.1-30,21.8-43c-6.7,1.2-13.7,2.2-21,2.9c-10.3,15.4-26.5,25.6-45.3,25.6s-35-10.2-45.3-25.6
		C203.2,204.2,196.2,203.2,189.5,202L189.5,202z M184.9,332.3c-14.8,56.6-37.6,115.1-57,156.7c48.5-10.6,80.3-10.3,118.9,0.9V382.1
		c-17.7-3.4-35.7-16.5-52-36.4C191.4,341.5,188.1,337.1,184.9,332.3L184.9,332.3z M326.7,332.3c-3.2,4.8-6.5,9.2-9.9,13.4
		c-16.3,19.9-34.3,33-52,36.4v107.8c38.6-11.2,70.4-11.5,118.9-0.9C364.3,447.4,341.5,388.9,326.7,332.3z"/>
</g>
</svg>
