<?xml version="1.0" encoding="utf-8"?>
<!-- Generator: Adobe Illustrator 25.2.1, SVG Export Plug-In . SVG Version: 6.00 Build 0)  -->
<svg version="1.1" id="Layer_1" xmlns="http://www.w3.org/2000/svg" xmlns:xlink="http://www.w3.org/1999/xlink" x="0px" y="0px"
	 viewBox="0 0 512 512" style="enable-background:new 0 0 512 512;" xml:space="preserve">
<style type="text/css">
	.st0{fill:#FFFFFF;}
</style>
<g transform="translate(0,0)">
	<path class="st0" d="M467.8,35.8c-53.2,3.5-101.3,8.1-139.1,50.2c9.9,29.6,26.2,65.9,46.6,95.2c20.5,29.4,44.8,50.6,68.6,53.3
		C479.2,201.5,497.6,122,467.8,35.8z M189.8,46c-5.6,0.2-11,1.4-16,3.6c-27.5,12.2-36.8,51.1-20.9,86.9c0,0,0,0,0,0
		c10.6,23.9,30.5,41.3,51.6,45.4c2.4,57.5-19.4,43.9-70.5,73.6l15.9,31.7c35.6-13.7,51.8-19.7,69.3-44.3
		c32.6,93.9-1.9,157.2-23.7,247.1l33.7,4.9c23.7-57.2,55.1-122.4,62.4-181.4c48.9,51.1,77.5,114.6,114.6,169.1l35.8-14.8
		c-45.8-80.7-65.6-128.4-150.6-262.2c26.8-0.2,49.8-6.6,70.7-15.4c-7-10.1-13.6-20.9-19.5-31.9c-28.2,12.1-59,17-90.1,0.9
		c10.2-18.4,10.1-43.9-0.1-67C239.7,64,214.4,45.2,189.8,46z M15.5,87.3l3.3,34.1l52.6,107.8l21.6-10.5L40.5,111.3L15.5,87.3
		L15.5,87.3z M112.5,226.9l-46.8,22.8l3.1,18.5l56.3-27.5L112.5,226.9L112.5,226.9z M114.9,263.6l-21.6,10.5l16.7,34.1l21.6-10.5
		L114.9,263.6L114.9,263.6z"/>
</g>
</svg>
